<?xml version="1.0" encoding="UTF-8"?>
<svg id="Capa_1" data-name="Capa 1" xmlns="http://www.w3.org/2000/svg" viewBox="0 0 1757 983">
  <defs>
    <style>
      .cls-1 {
        fill: #fff;
      }
    </style>
  </defs>
  <circle class="cls-1" cx="585.56" cy="374" r="79.73"/>
  <g>
    <path class="cls-1" d="m454.93,608.38l-293.22,205.31c-4.2,2.94-2.12,9.54,3.01,9.54h192.22c2.15,0,4.25-.66,6.02-1.9l194.92-136.49c2.98-2.09,2.98-6.51,0-8.59l-96.94-67.88c-1.81-1.26-4.21-1.26-6.02,0Z"/>
    <path class="cls-1" d="m612.44,684.3l195.72,137.04c1.76,1.23,3.86,1.9,6.02,1.9h192.22c5.13,0,7.21-6.6,3.01-9.54l-300.79-210.62c-1.87-1.31-4.39-1.26-6.2.12-30.76,23.43-60.89,47.69-90.37,72.79-2.62,2.23-2.41,6.34.4,8.31Z"/>
  </g>
  <path class="cls-1" d="m1597.26,159.47c-390.67,21.62-769.96,202.84-1011.7,349.18l-210.57-147.44c-1.76-1.23-3.86-1.9-6.02-1.9h-192.22c-5.13,0-7.21,6.6-3.01,9.54l149.91,104.97,129.41,90.61,26.41,18.5,88.88,62.23,10.56,7.4c3.91,2.74,9.18,2.48,12.81-.62,297.65-253.5,642.94-408.43,1006.09-488.32,2.52-.55,2.01-4.29-.56-4.15Z"/>
</svg>